<?xml version="1.0" standalone="no"?><!DOCTYPE svg PUBLIC "-//W3C//DTD SVG 1.1//EN" "http://www.w3.org/Graphics/SVG/1.1/DTD/svg11.dtd"><svg t="1634263143928" class="icon" viewBox="0 0 1024 1024" version="1.1" xmlns="http://www.w3.org/2000/svg" p-id="1193" xmlns:xlink="http://www.w3.org/1999/xlink" width="200" height="200"><defs><style type="text/css"></style></defs><path d="M857.951577 766.906205v5.833571c0.416684 22.917599 0.833367 53.752187-6.87528 66.461038-8.125331 13.542218-19.375788 23.542625-32.501322 30.417904-13.542218 7.083622-28.959512 10.625432-44.585148 10.625433H378.973754c-8.333672 0-16.042319-3.541811-21.459207-8.958698-5.625229-5.625229-8.958698-13.125534-8.958698-21.459207V538.146897c0-1.666734 0.208342-3.541811 0.625026-5.416887 0.416684-1.666734 0.625025-2.916785 1.041709-4.166836l0.208342-0.625025c0.416684-1.041709 0.625025-2.083418 1.250051-3.333469 0.208342-0.625025 0.625025-1.250051 1.041709-1.875077l1.041709-1.458392c11.875483-16.250661 26.042726-35.62645 40.626653-55.418922 63.544252-86.25351 133.547101-180.840692 181.257375-268.760936 10.000407-17.917396 21.250865-32.501322 36.251475-41.876704 15.833978-9.792065 34.584741-13.958901 58.544049-10.208749 14.583927 2.29176 27.917803 8.333672 38.751577 17.292371 11.042116 8.958698 19.792472 20.834181 25.417701 34.58474 27.709461 68.961139-29.792879 142.089115-67.294405 189.591048l-0.208342 0.416684-10.208749 12.917192c61.252492-0.416684 169.17355-0.833367 193.966226 16.042319 14.167243 9.583723 20.209156 34.168057 22.709258 59.377416 1.875076 18.125738 2.083418 37.084842 1.875076 49.37701 5.208545 6.666938 8.542014 15.208952 8.542014 24.584333V618.775178c0 7.916989-2.29176 15.417294-6.250254 21.459207 3.958494 6.041913 6.250254 13.542218 6.250254 21.459206v69.169481c0 9.792065-3.541811 18.750763-9.16704 25.417701-4.791862 5.000203-10.417091 8.958698-16.875686 10.625432z" fill="#FFB74D" p-id="1194"></path><path d="M167.715158 512.104171H304.179044c8.333672 0 15.625636 3.958494 20.625839 10.625432 4.166836 5.416887 6.666938 12.500509 6.666938 20.209156v306.679145c0 3.750153-0.625025 7.083622-1.666735 10.208749-0.833367 2.916785-2.083418 5.416887-3.54181 7.500305-0.416684 0.625025-0.833367 1.458393-1.458393 2.29176l-0.416684 0.416684c-0.625025 0.833367-1.250051 1.250051-1.666734 1.875076-1.875076 2.083418-4.166836 3.958494-6.87528 5.416887-3.541811 1.875076-7.291963 2.916785-11.667141 2.916786H167.715158c-8.333672 0-15.625636-4.166836-20.62584-10.625433-4.166836-5.416887-6.87528-12.500509-6.875279-20.209155V542.730417c0-7.500305 2.708444-14.792269 6.875279-20.209156 5.208545-6.250254 12.500509-10.417091 20.62584-10.41709z" fill="#01579B" p-id="1195"></path><path d="M871.493795 532.938352c2.083418 0 3.750153-3.541811 3.750152-7.916989s-1.666734-7.916989-3.750152-7.916989h-147.714344c-2.083418 0-3.750153 3.541811-3.750153 7.916989s1.666734 7.916989 3.750153 7.916989h147.714344zM876.70234 656.068362c2.083418 0 3.958494-3.541811 3.958494-7.916989s-1.666734-7.916989-3.958494-7.916988h-152.922889c-2.083418 0-3.958494 3.541811-3.958495 7.916988s1.666734 7.916989 3.958495 7.916989h152.922889zM870.660427 767.947915c2.083418 0 3.750153-3.541811 3.750153-7.916989s-1.666734-7.916989-3.750153-7.916989h-146.880976c-2.083418 0-3.750153 3.541811-3.750153 7.916989s1.666734 7.916989 3.750153 7.916989h146.880976z" fill="#FB8C00" p-id="1196"></path></svg>