<?xml version="1.0" standalone="no"?><!DOCTYPE svg PUBLIC "-//W3C//DTD SVG 1.1//EN" "http://www.w3.org/Graphics/SVG/1.1/DTD/svg11.dtd"><svg t="1634263207964" class="icon" viewBox="0 0 1024 1024" version="1.1" xmlns="http://www.w3.org/2000/svg" p-id="8420" xmlns:xlink="http://www.w3.org/1999/xlink" width="200" height="200"><defs><style type="text/css"></style></defs><path d="M508.928 207.38048c41.32864-97.95584 135.74144-166.4 245.5552-166.4 147.92704 0 254.464 126.54592 267.85792 277.36064 0 0 7.22944 37.43744-8.68352 104.83712-21.66784 91.79136-72.6016 173.34272-141.27104 235.58144L508.928 983.04 151.59296 658.7392c-68.66944-62.21824-119.6032-143.79008-141.27104-235.58144-15.91296-67.39968-8.68352-104.83712-8.68352-104.83712C15.03232 167.50592 121.56928 40.96 269.49632 40.96c109.83424 0 198.10304 68.46464 239.43168 166.42048z" fill="#C03A2B" p-id="8421"></path><path d="M122.88 370.23744a20.48 20.48 0 0 1-20.48-20.48c0-112.92672 91.87328-204.8 204.8-204.8a20.48 20.48 0 1 1 0 40.96c-90.33728 0-163.84 73.50272-163.84 163.84a20.48 20.48 0 0 1-20.48 20.48z" fill="#ED7161" p-id="8422"></path></svg>